<svg xmlns="http://www.w3.org/2000/svg" width="32" height="75" fill="none" viewBox="0 0 32 75"><path fill="#0C50F0" d="m15.888 66.113-.64-1.44c-.207-.492-.636-.723-1.199-.723H7.085v.344l1.044 1.03h5.394c.193 0 .359.112.433.274l.52 1.015a.2.2 0 0 1 0 .167l-.52 1.015a.48.48 0 0 1-.433.275h-4.14a.14.14 0 0 1-.14-.138v-.824L8.128 66.01h-.347v3.022c0 .227.186.412.418.412h5.849c.563 0 .992-.23 1.199-.723l.639-1.44a1.57 1.57 0 0 0 0-1.168M24.566 63.95l-1.115 1.099v2.786a.16.16 0 0 1-.126.16.16.16 0 0 1-.144-.042l-3.584-3.534a1.625 1.625 0 0 0-2.762 1.158v3.867h.348l1.114-1.099V65.56c0-.075.052-.145.126-.16a.16.16 0 0 1 .144.042l3.584 3.534c.317.313.764.496 1.254.464a1.625 1.625 0 0 0 1.508-1.622V63.95zM22.322 71.998l-.595-.797a.43.43 0 0 0-.344-.171h-4.465v3.968h1.209V73.66h3.104a.43.43 0 0 0 .343-.171l.25-.335.497-.658a.42.42 0 0 0 0-.5zm-4.194.651v-.62c0-.063.052-.115.117-.115h2.644a.13.13 0 0 1 .103.05l.237.31c.023.03.024.071 0 .1l-.248.338a.13.13 0 0 1-.104.052h-2.633a.116.116 0 0 1-.117-.116zM1.54 72.58l-.244-.246a.13.13 0 0 1 .002-.162l.242-.23a.09.09 0 0 1 .065-.03h3.11l.901-.89H1.157a.43.43 0 0 0-.346.172l-.727.799a.42.42 0 0 0 0 .504l.698.754c.08.107.209.17.344.17h2.858l.223.277a.126.126 0 0 1-.003.162l-.217.25H.918l-.895.889h4.46a.43.43 0 0 0 .344-.171l.597-.796c.17-.226.17-.28-.002-.505l-.567-.745a.43.43 0 0 0-.344-.17H1.605a.1.1 0 0 1-.067-.031zM10.302 71.03H6.388c-.351 0-.636.281-.636.627v2.716c0 .346.285.627.636.627h3.655l.894-.881v-2.46a.63.63 0 0 0-.636-.627zm-.391 2.88a.215.215 0 0 1-.217.214H6.997a.215.215 0 0 1-.217-.214v-1.792c0-.118.097-.213.217-.213h2.697c.12 0 .217.095.217.213zM15.904 71.03h-3.915a.63.63 0 0 0-.635.627v2.716c0 .346.285.627.636.627h3.655l.893-.881v-2.46a.63.63 0 0 0-.635-.627zm-.393 2.88a.215.215 0 0 1-.216.214h-2.698a.215.215 0 0 1-.216-.214v-1.792c0-.118.097-.213.216-.213h2.698c.12 0 .216.095.216.213zM31.441 73.485a.32.32 0 0 0-.255-.125h-1.592q-.01 0-.015-.007l-.16-.162c-.014-.018-.014-.042-.001-.057l.16-.153s.01-.007.016-.007h1.74l.666-.656h-2.7c-.1 0-.197.047-.255.125l-.478.527a.31.31 0 0 0 .003.377l.455.492c.06.079.156.126.256.126h1.543l.135.168a.05.05 0 0 1-.001.06l-.131.15H29.13l-.66.657h2.7a.32.32 0 0 0 .256-.127l.392-.522c.121-.162.121-.215-.002-.375l-.372-.489zM23.013 74.272l-.154-.287h2.136l.588-.597v-1.066h-2.526c-.121 0-.214.095-.283.181L22 73.528c-.052.078-.04.18 0 .264l.476 1.025c.052.11.163.18.283.18h2.25l.621-.654h-2.504c-.05 0-.084-.02-.114-.072zm-.073-.936.207-.257c.044-.053.094-.102.165-.102h1.548v.36zM25.914 72.334v2.665h.867v-2.063h1.466l.61-.602zM31.999 13.418l-20.257 7.401H.001l20.257-7.401zM31.998 23.193v26.293c-.001 1.366-.735 2.64-1.902 3.375l-11.382 7.168a5.1 5.1 0 0 1-5.429 0L1.88 52.86A3.99 3.99 0 0 1 0 49.485V35.94l6.903-2.75v13.726L16 52.647l9.079-5.718v-20.98zM31.999 13.418v8.071L.001 34.238v-8.072zM.001 12.748v8.071L31.999 8.071V0z"/></svg>