<svg xmlns="http://www.w3.org/2000/svg" width="400" height="400" fill="none" viewBox="0 0 400 400"><g clip-path="url(#a)"><path fill="url(#b)" d="M0 40v210h86.51c4.451 0 6.702 5.4 3.551 8.55l-34.204 34.2a20.019 20.019 0 0 0-5.85 14.15V390c0 5.5 4.5 10 10 10h55.007c5.501 0 10.002-4.5 10.002-10V233.3c0-5.3 2.1-10.4 5.85-14.15l65.609-65.6a4.98 4.98 0 0 1 7.05 0l65.609 65.6a20.02 20.02 0 0 1 5.85 14.15V250c41.256 0 75.01 33.75 75.01 75v75h10.001C382.098 400 400 382.1 400 360V40c0-22.1-17.902-40-40.005-40H40.005C17.902 0 0 17.9 0 40Zm300.038 110a79.008 79.008 0 0 0-50.007-50 79.008 79.008 0 0 0 50.007-50 79.005 79.005 0 0 0 50.006 50 79.005 79.005 0 0 0-50.006 50Z"/><path fill="url(#c)" d="M200.026 325v65c0 5.5 4.501 10 10.001 10h55.007c5.501 0 10.002-4.5 10.002-10V250c-41.256 0-75.01 33.75-75.01 75Z"/><path fill="url(#d)" d="M300.038 50a79.005 79.005 0 0 1-50.006 50 79.005 79.005 0 0 1 50.006 50 79.008 79.008 0 0 1 50.007-50 79.008 79.008 0 0 1-50.007-50Z"/></g><defs><linearGradient id="b" x1="6.98351e-06" x2="399.038" y1="399.038" y2="-0.421471" gradientUnits="userSpaceOnUse"><stop stop-color="#483FBC"/><stop offset="1" stop-color="#7A5AE4"/></linearGradient><linearGradient id="c" x1="6.98351e-06" x2="399.038" y1="399.038" y2="-0.421471" gradientUnits="userSpaceOnUse"><stop stop-color="#483FBC"/><stop offset="1" stop-color="#7A5AE4"/></linearGradient><linearGradient id="d" x1="250.265" x2="348.823" y1="149.038" y2="50.3765" gradientUnits="userSpaceOnUse"><stop stop-color="#3ADBD7"/><stop offset="1" stop-color="#1DFFAA"/></linearGradient><clipPath id="a"><path fill="#fff" d="M0 0h400v400H0z"/></clipPath></defs></svg>