<svg xmlns="http://www.w3.org/2000/svg" xml:space="preserve" x="0px" y="0px" viewBox="0 0 480 582"><g fill="#9F0101"><path d="M415.67 288.312c0 27.099-.006 54.199.005 81.298.002 5.909.098 11.818.091 17.726-.006 4.558-1.677 6.241-6.259 6.244-29.646.018-59.291.016-88.937-.015-1.251-.001-2.537-.239-3.745-.583-3.08-.879-4.001-3.283-2.397-6.457 4.834-9.566 9.137-19.376 13.553-29.136 20.016-44.239 40.036-88.477 60.054-132.715.187-.413.352-.839.564-1.239.818-1.546.6-2.261-1.384-2.196-3.543.117-7.092.033-10.638.032-40.194-.002-80.389-.003-120.583-.006-5.268 0-6.894-1.585-6.903-6.788-.013-8.457-.049-16.915.033-25.371.017-1.777-.271-2.524-2.314-2.51-13.367.096-26.735.035-40.103.061-2.994.006-5.989.139-8.982.241-2.454.084-4.56-.617-5.713-2.913-1.165-2.32-.797-4.617.772-6.652 3.652-4.737 7.319-9.463 11.039-14.147a12449.497 12449.497 0 0 1 29.106-36.529c4.303-5.377 8.747-10.643 13.039-16.029 8.857-11.114 17.481-22.418 26.527-33.375 8.187-9.917 16.002-20.12 24.04-30.149 10.542-13.153 21.171-26.236 31.77-39.343 2.276-2.814 5.903-2.836 8.133-.048 9.79 12.244 19.395 24.642 29.403 36.705 11.337 13.665 22.128 27.763 33.344 41.524 6.858 8.414 13.657 16.923 20.315 25.524 9.476 12.24 19.473 24.074 29.143 36.166 8.145 10.184 16.142 20.487 24.199 30.741 1.232 1.567 1.544 3.306.63 5.104-1.133 2.228-3.134 3.337-5.531 3.386-3.446.07-6.897-.197-10.346-.205-13.095-.029-26.19.038-39.285-.062-2.13-.016-2.694.539-2.689 2.684.071 33.011.049 66.021.049 99.032zm20.625-122.252c-13.675 0-26.586.081-39.494-.07-2.511-.029-2.913.727-2.91 3.029.068 56.017.056 112.034.057 168.052 0 11.094-.039 22.189.038 33.283.013 1.865-.196 2.921-2.438 2.628-1.61-.21-3.268-.041-4.905-.041-19.279 0-38.557-.007-57.836.022-.978.001-2.096-.476-2.783.976-2.09 4.42-4.309 8.779-6.534 13.133-.851 1.664-.483 2.19 1.406 2.188 29.464-.037 58.927-.039 88.391.008 1.672.003 2.188-.466 2.149-2.141-.128-5.452-.139-10.907-.14-16.361-.008-61.928.009-123.856-.06-185.784-.003-2.356.728-2.773 2.901-2.758 14.367.099 28.736.045 43.104.056a575.3 575.3 0 0 1 10.091.101c1.964.036 2.263-.782 1.259-2.308-.348-.529-.784-1.001-1.181-1.497-44.478-55.65-88.96-111.296-133.409-166.969-1.189-1.489-1.892-1.802-3.191-.099-3.25 4.261-6.666 8.396-10.013 12.583L196.898 179.118c-.619.774-1.554 1.529-1.116 2.606.507 1.248 1.765.616 2.665.616 17.459.007 34.918.004 52.377-.111 2.138-.014 2.724.544 2.696 2.702-.124 9.638-.004 19.278-.096 28.917-.018 1.907.26 2.723 2.454 2.611 4.082-.208 8.187-.19 12.271-.007 2.179.097 2.699-.583 2.686-2.706a3710.97 3710.97 0 0 1 .015-45.013c.013-2.094-.457-2.746-2.658-2.726-12.275.114-24.552.062-36.829.037-.758-.002-1.599.322-2.292-.25-.071-.804.549-1.16.923-1.628 33.535-41.954 67.092-83.889 100.585-125.876 1.512-1.895 2.186-1.767 3.623.035 32.585 40.852 65.225 81.659 97.856 122.474 1.279 1.598 2.569 3.19 4.237 5.261zM7.982 232.882h3.243c24.095 0 48.19.031 72.285-.052 2.327-.008 3.48.607 4.392 2.879 12.624 31.462 25.367 62.875 38.078 94.302 13.461 33.281 26.93 66.559 40.376 99.847 11.983 29.665 23.931 59.344 35.935 89 .623 1.539.707 2.837-.001 4.392-7.577 16.652-15.255 33.255-23.266 49.702-.362.743-.655 1.726-1.557 1.698-.927-.029-1.069-1.128-1.416-1.83-15.668-31.687-31.315-63.383-46.977-95.073-19.611-39.679-39.234-79.351-58.849-119.028-17.682-35.767-35.36-71.535-53.043-107.301-2.974-6.013-5.964-12.018-9.2-18.536z"/><path d="M334.266 232.995 210.105 503.261c-1.748-4.627-3.317-8.733-4.852-12.852-7.448-20-14.868-40.01-22.361-59.992-.614-1.638-.638-3.036-.052-4.682 22.575-63.449 45.12-126.908 67.602-190.39.76-2.147 1.756-2.836 4.045-2.828 25.639.091 51.279.056 76.919.071.875 0 1.799-.248 2.86.407zM357.161 232.575c3.633 0 7.27.11 10.897-.041 2.234-.093 2.713.384 1.669 2.496-3.944 7.984-7.765 16.029-11.637 24.049-19.121 39.608-38.272 79.202-57.356 118.828-13.643 28.327-27.164 56.712-40.799 85.043-14.227 29.56-28.535 59.081-42.785 88.63A1603.023 1603.023 0 0 0 206.536 574c-.819 1.768-1.783 2.607-3.888 2.53-4.901-.18-9.814-.114-14.72-.025-1.858.034-2.425-.204-1.497-2.191 5.648-12.106 11.178-24.266 16.752-36.406 11.262-24.529 22.519-49.06 33.792-73.583 14.991-32.613 30.003-65.217 44.991-97.832 12.257-26.671 24.485-53.355 36.74-80.027 8.005-17.424 16.045-34.833 24.027-52.267.527-1.151 1.147-1.668 2.44-1.647 3.994.064 7.991.023 11.988.023zM298.275 546.77c-.406.533-.761 1.153-1.257 1.627-9.116 8.722-18.26 17.415-27.366 26.148-1.264 1.213-2.175 1.1-3.419-.1a3590.826 3590.826 0 0 0-26.775-25.584c-1.567-1.481-1.455-2.639-.139-4.15a1206.62 1206.62 0 0 0 13.835-16.14c1.369-1.629 2.487-1.742 4.015-.22 3.087 3.076 6.329 5.996 9.409 9.08 1.092 1.093 1.765 1.092 2.856-.001 3.015-3.019 6.243-5.829 9.203-8.899 1.79-1.856 2.86-1.684 4.467.282 4.424 5.416 9.067 10.654 13.616 15.969.525.615.999 1.275 1.555 1.988zM348.777 457.722c-19.908.001-39.816-.08-59.723.051-5.928.039-9.666-1.56-5.841-9.328 2.672-5.427 5.91-7.17 11.758-7.134 37.541.226 75.085.115 112.628.12 1.18 0 2.372-.033 3.538.11 3.081.378 4.393 1.658 4.578 4.741.141 2.35.061 4.724-.077 7.078-.148 2.54-1.594 3.985-4.149 4.211a40.504 40.504 0 0 1-3.536.144c-19.724.007-39.45.005-59.176.007zm-.032-4.574h58.632c4.021 0 3.794-.017 4.095-3.944.232-3.027-.915-3.452-3.624-3.446-37.542.091-75.085.138-112.627-.049-4.051-.02-6.343 1.041-7.687 4.831-.921 2.596-1.107 2.606 1.762 2.607 19.816.004 39.632.002 59.449.001zM355.111 432.837h-52.883c-.727 0-1.456.037-2.18-.009-5.838-.366-7.35-3.378-4.605-8.495 2.701-5.034 5.03-10.267 7.575-15.386 1.169-2.352 2.388-4.685 3.717-6.949 1.381-2.351 3.808-2.618 6.203-2.644 5.451-.059 10.903-.019 16.355-.019 26.351 0 52.701-.004 79.052.012 1.171.001 2.35.115 3.51.278 2.429.342 3.791 1.857 3.813 4.234.076 8.173.14 16.349-.037 24.519-.067 3.098-2.11 4.424-6.001 4.446-6.996.041-13.993.012-20.989.012l-33.53.001zm-.224-4.36c17.993 0 35.986-.034 53.979.047 2.028.009 2.631-.482 2.588-2.556a511.638 511.638 0 0 1-.005-19.899c.035-1.953-.596-2.406-2.457-2.403-31.896.051-63.793.049-95.689.001-1.685-.003-2.61.499-3.356 2.039-3.288 6.78-6.634 13.533-10.109 20.218-1.121 2.155-.796 2.607 1.616 2.596 17.81-.08 35.621-.043 53.433-.043z"/><path d="M350.465 419.919c-12.537 0-25.075-.048-37.612.044-2.316.017-2.448-.432-1.655-2.538 1.515-4.026 3.748-5.586 8.378-5.523 22.708.309 45.423.178 68.136.085 2.557-.01 3.53.572 3.395 3.295-.266 5.359.624 4.614-4.665 4.628-11.993.03-23.985.009-35.977.009z"/></g></svg>